# xmcd
#
# Track frame offsets:
#	150
#	15973
#	30940
#	44405
#	58065
#	75136
#	88754
#	103956
#	116548
#	134297
#	150079
#	166845
#	181467
#	194511
#	209718
#	224337
#	238159
#	252351
#	271304
#	287524
#	300797
#	314671
#	326010
#	340366
#
# Disc length: 4752 seconds
#
# Revision: 0
# Processed by: cddbd v1.4PL0 Copyright (c) Steve Scherf et al.
# Submitted via: EasyCDDAExtractor 4.5.0.2
#
DISCID=4d128e18
DTITLE=The Best Of - STELLA KONITOPOULOU
DYEAR=1900
DGENRE=
TTITLE0=аута поу евоуле поте дем та ейтилале  -  йомитопоукоу
TTITLE1=циамта  -  йомитопоукоу
TTITLE2=циаселайи (меои жикои)  -  йомитопоукоу
TTITLE3=диабатгяио  -  йомитопоукоу
TTITLE4=еисаи то дийо лоу кахос  -  йомитопоукоу
TTITLE5=еммоиа соу  -  йомитопоукоу
TTITLE6=еяытас айаяиаиос  -  йомитопоукоу
TTITLE7=еяытийо йауцадайи  -  йомитопоукоу
TTITLE8=евы лиа диьа  -  йомитопоукоу
TTITLE9=г елема г тгм аккг  -  йомитопоукоу
TTITLE10=идоу г яодос идоу йаи то пгдгла  -  йомитопоукоу
TTITLE11=йапоте пакиа  -  йомитопоукоу
TTITLE12=куцаяиа  -  йомитопоукоу
TTITLE13=ла есу еисаи аккоу  -  йомитопоукоу
TTITLE14=латиа лоу лецака  -  йомитопоукоу
TTITLE15=ле та латиа лехусе ле  -  йомитопоукоу
TTITLE16=лиа баяйа  -  йомитопоукоу
TTITLE17=о еяытас еухуметаи  -  йомитопоукоу
TTITLE18=оимопмеулатайи лоу  -  йомитопоукоу
TTITLE19=паяапомайи лоу  -  йомитопоукоу
TTITLE20=сам мгсайи  -  йомитопоукоу
TTITLE21=самтояимиа  -  йомитопоукоу
TTITLE22=сто памгцуяи тоу выяиоу  -  йомитопоукоу
TTITLE23=то пяыто соу жики  -  йомитопоукоу
EXTD=
EXTT0=
EXTT1=
EXTT2=
EXTT3=
EXTT4=
EXTT5=
EXTT6=
EXTT7=
EXTT8=
EXTT9=
EXTT10=
EXTT11=
EXTT12=
EXTT13=
EXTT14=
EXTT15=
EXTT16=
EXTT17=
EXTT18=
EXTT19=
EXTT20=
EXTT21=
EXTT22=
EXTT23=
PLAYORDER=
